<?xml version="1.0" encoding="UTF-8"?><svg id="Layer_1" xmlns="http://www.w3.org/2000/svg" viewBox="0 0 792 612"><defs><style>.cls-1{fill:#b4b4b5;}</style></defs><g id="plvEmQ"><path class="cls-1" d="M93.84,429.45c.38-.72.79-1.43,1.13-2.17,24.14-51.54,48.27-103.07,72.43-154.6.39-.83.39-1.48,0-2.3-2.54-5.31-5.02-10.65-7.53-15.98-.16-.35-.31-.7-.53-1.18.88-.2,1.67-.35,2.44-.55,11.13-2.91,19.24-9.49,24.16-19.92,6.54-13.88,13.05-27.78,19.58-41.67.2-.42.41-.83.74-1.5,37.34,80.11,74.58,160.01,111.88,240.04-.48.02-.84.06-1.21.06-24.67,0-49.34,0-74.01.03-.97,0-1.35-.36-1.72-1.15-7.82-16.84-15.67-33.66-23.48-50.5-.45-.98-.95-1.37-2.08-1.37-29.47.04-58.94.04-88.41,0-1.07,0-1.57.33-2.02,1.29-7.87,16.86-15.78,33.7-23.65,50.55-.4.86-.85,1.22-1.83,1.17-1.96-.09-3.93-.03-5.9-.03,0-.08,0-.16,0-.24ZM171.54,279.08c-14.29,30.51-28.45,60.76-42.64,91.07h85.12c-14.15-30.34-28.25-60.56-42.48-91.07Z"/><path class="cls-1" d="M680.9,182.5v180.22h17.26v6.51h-17.12v60.58h-69.2v-60.54h-1.42c-32.22,0-64.45,0-96.67-.03-1.01,0-1.56.44-2.16,1.1-17.57,19.52-35.16,39.03-52.73,58.55-.63.7-1.26,1-2.22,1-44.11-.02-88.22-.02-132.32-.02-.43,0-.86,0-1.35,0-.06-.27-.14-.49-.14-.7.1-20.84,5.45-39.98,18.49-56.57,9.16-11.65,20.68-20.46,33.75-27.34,10.83-5.7,22.29-9.76,34.07-12.94,5.31-1.43,10.64-2.76,15.98-4.05,4.95-1.19,8.78-5.78,8.93-10.87,0-.27.01-.55.01-.83,0-38.56,0-77.11,0-115.67,0-4.98-2.9-8.85-7.52-10-1.05-.26-2.18-.27-3.27-.31-12.48-.43-24.85.37-36.98,3.5-14.18,3.65-27,9.86-37.31,20.52-2.63,2.72-4.92,5.76-7.36,8.66.09.08.19.16.28.24,1.73-1.12,3.41-2.32,5.19-3.35,24.85-14.46,56.82.01,62.34,28.2,4.4,22.45-10.06,44.36-32.46,49.2-23.1,4.99-46.2-10.45-50.12-33.57-1.7-10.02-.44-19.83,2.74-29.39,5.12-15.42,15.1-27,28.77-35.53,10.64-6.65,22.32-10.57,34.61-12.77,13.54-2.42,27.15-2.45,40.8-1.23,11.36,1.02,22.49,3.14,33.21,7.11,12.05,4.46,22.82,10.91,31.5,20.52,9.7,10.75,15.15,23.38,16.34,37.79.94,11.38-.25,22.52-4.4,33.24-5.01,12.94-13.85,22.68-25.42,30.1-8.89,5.71-18.6,9.62-28.63,12.8-10.95,3.48-22.22,5.65-33.39,8.25-15.26,3.55-30.22,7.99-44.29,15.04-4.43,2.22-6.71,6.71-5.66,11.3,1.09,4.74,5.01,7.85,10,7.85,42.77,0,85.54,0,128.31-.03.53,0,1.21-.32,1.57-.72,41.23-45.68,82.43-91.39,123.63-137.09,14.45-16.03,28.91-32.07,43.35-48.11.24-.27.33-.68.49-1.03.17.13.34.26.51.4ZM611.55,268.66c-28.27,31.37-56.35,62.53-84.57,93.84h84.57v-93.84Z"/></g></svg>