<?xml version="1.0" encoding="UTF-8"?><svg id="Layer_1" xmlns="http://www.w3.org/2000/svg" viewBox="0 0 792 612"><defs><style>.cls-1{fill:#b4b4b5;}</style></defs><path class="cls-1" d="M637.07,424.5c-.77-.38-1.84-.77-3.07-1.23-4.68-1.61-12.29-3.61-22.89-5.91-9.28-2.07-13.98-4.77-13.98-8.14,0-2.38.85-4.3,2.46-5.68,2.15-1.85,5.98-2.76,11.51-2.76s9.67,1.23,12.06,3.61c1.47,1.46,2.54,4.06,3.23,7.76h22.27c0-5.45-1.11-10.14-3.32-14.05-2.21-3.92-5.51-7.08-9.89-9.45-.46-.31-.93-.55-1.46-.77-6.07-2.84-14.13-4.3-24.19-4.3-12.22,0-21.43,3.23-27.57,9.76-4.91,5.22-7.29,11.59-7.29,19.11,0,9.38,4.61,16.13,13.97,20.51,3.53,1.69,12.13,4.08,25.8,6.99,9.15,2,13.75,4.84,13.75,8.45,0,2.15-.92,3.99-2.92,5.69-2.54,2.15-6.37,3.23-11.52,3.23-6.83,0-11.67-1.16-14.51-3.39-2.84-2.15-4.3-5.3-4.3-9.29h-23.34c0,5.3,1.12,9.92,3.35,13.88,2.24,3.96,5.59,7.24,10.09,9.85,7.14,4.07,16.51,6.15,28.11,6.15,7.76,0,14.67-1.3,20.58-3.84,1.23-.54,2.3-1.07,3.46-1.69,9.14-5.07,13.75-13.13,13.75-24.19,0-9.06-4.68-15.83-14.13-20.28Z"/><path class="cls-1" d="M630.47,361.91h1.38l1.84.53c.15.07.24.16.31.23.62.54,1.31,1.62,2.15,3.07l1.31,2.3h2.77l-1.69-2.84-2.15-2.85c-.31-.3-.69-.54-1.23-.77,1.23-.07,2.23-.53,2.99-1.31.77-.76,1.15-1.69,1.15-2.76,0-.76-.23-1.45-.69-2.07-.46-.69-1.08-1.15-1.85-1.38-.62-.23-1.54-.38-2.77-.38-.23,0-.54-.07-.85-.07h-4.99v14.43h2.31v-6.14ZM630.47,355.61h3.53c.69.08,1.16.15,1.47.24.45.14.76.38.99.76.24.31.31.69.31,1.16,0,.61-.23,1.15-.69,1.54-.38.38-1.07.54-2.08.61h-3.53v-4.3Z"/><path class="cls-1" d="M627.4,372.2c2.15,1.24,4.3,1.77,6.6,1.77h.07c2.31,0,4.46-.54,6.61-1.77,2.14-1.14,3.76-2.76,4.91-4.91,1.23-2.15,1.77-4.37,1.77-6.6,0-2.38-.55-4.61-1.77-6.77-1.15-2.15-2.84-3.75-4.99-4.91-2.14-1.15-4.3-1.76-6.53-1.76h-.07c-2.23.07-4.37.61-6.53,1.76-2.15,1.16-3.77,2.76-4.99,4.91-1.23,2.16-1.76,4.38-1.76,6.77,0,2.23.53,4.46,1.76,6.6,1.16,2.15,2.76,3.76,4.92,4.91ZM622.87,360.68c0-2,.54-3.84,1.53-5.61,1-1.76,2.38-3.15,4.15-4.15,1.76-.92,3.6-1.46,5.44-1.46h.07c1.85,0,3.69.54,5.46,1.46,1.77,1,3.14,2.38,4.15,4.15,1,1.77,1.46,3.61,1.46,5.61s-.46,3.76-1.46,5.53c-.92,1.68-2.3,3.08-4.07,4.06-1.77,1-3.61,1.46-5.54,1.46h-.07c-1.92,0-3.76-.46-5.53-1.46-1.76-.99-3.14-2.38-4.07-4.06-.99-1.77-1.53-3.61-1.53-5.53Z"/><polygon class="cls-1" points="418.27 153.47 372.66 180.89 418.27 256.85 478.48 357.23 516.72 357.23 579.78 357.23 516.72 252.17 446.99 136.2 418.27 153.47"/><path class="cls-1" d="M541.53,473.27h20.97v-86.4h-20.97v4.99c-7.07-4.6-15.52-7.29-24.57-7.29h-.24c-25.04.16-45.39,20.58-45.39,45.61s20.35,45.47,45.39,45.63h.24c9.06,0,17.51-2.69,24.57-7.3v4.76ZM516.96,455.3h-.24c-13.74-.16-24.88-11.37-24.88-25.12s11.14-24.95,24.88-25.04h.24c12.13,0,22.35,8.76,24.57,20.28v9.52c-2.23,11.52-12.44,20.35-24.57,20.35Z"/><path class="cls-1" d="M443.08,473.27h20.96v-116.04h-20.96v34.63c-7.15-4.6-15.51-7.29-24.58-7.29h-.23c-25.04.16-45.39,20.58-45.39,45.61s20.35,45.47,45.39,45.63h.23c9.07,0,17.43-2.69,24.58-7.3v4.76ZM418.5,455.3h-.23c-13.75-.16-24.88-11.37-24.88-25.12s11.13-24.95,24.88-25.04h.23c12.13,0,22.35,8.76,24.58,20.28v9.52c-2.23,11.52-12.45,20.35-24.58,20.35Z"/><polygon class="cls-1" points="443 357.23 418.27 315.9 357.52 214.83 285.56 258.16 283.11 259.61 285.56 263.68 341.77 357.23 418.27 357.23 443 357.23"/><rect class="cls-1" x="341.86" y="384.56" width="22.81" height="88.71"/><rect class="cls-1" x="341.86" y="357.68" width="22.81" height="20.04"/><path class="cls-1" d="M310.44,473.27h20.96v-116.04h-20.96v34.63c-7.14-4.6-15.59-7.29-24.65-7.29h-.23c-25.03.16-45.39,20.58-45.39,45.61s20.35,45.47,45.39,45.63h.23c9.07,0,17.51-2.69,24.65-7.3v4.76ZM285.79,455.3h-.23c-13.75-.16-24.88-11.37-24.88-25.12s11.13-24.95,24.88-25.04h.23c12.21,0,22.43,8.76,24.65,20.28v9.52c-2.23,11.52-12.44,20.35-24.65,20.35Z"/><polygon class="cls-1" points="285.56 357.23 306.3 357.23 285.56 322.66 268.05 293.56 193.63 338.26 205 357.23 285.56 357.23"/><path class="cls-1" d="M210.99,473.27h20.96v-86.4h-20.96v4.99c-7.15-4.6-15.6-7.29-24.65-7.29h-.24c-24.95.16-45.31,20.58-45.31,45.61s20.35,45.47,45.31,45.63h.24c9.06,0,17.51-2.69,24.65-7.3v4.76ZM186.34,455.3h-.24c-13.67-.16-24.8-11.37-24.8-25.12s11.13-24.95,24.8-25.04h.24c12.21,0,22.43,8.76,24.65,20.28v9.52c-2.23,11.52-12.44,20.35-24.65,20.35Z"/></svg>