<?xml version="1.0" encoding="UTF-8"?><svg id="Layer_1" xmlns="http://www.w3.org/2000/svg" viewBox="0 0 792 612"><defs><style>.cls-1{fill:#b4b4b5;}</style></defs><path class="cls-1" d="M194.02,459.27h-11.82v-8.35h36.76v-9.01h-36.76v-8.27h6.2c7.83,0,24.21,0,33.49.06h.19s0-8.97,0-8.97h-50.64v.19c.07,2.52.07,4.57.07,7.67v26.05c0,4.55,0,7.06-.06,9.89v.19s51.14,0,51.14,0v-9.51h-.19c-6.88.06-20.34.06-28.38.06ZM327.23,459.99c-7.63,0-11.48-.72-13.73-2.58-2.42-2-2.91-5.48-2.91-10.44v-.49c0-10.25,2.06-13.02,16.52-13.02,13.02,0,15.86,1.81,16.4,6.42l10.63-.25c-.22-5.09-1.32-8.39-3.6-10.69-3.61-3.64-10.18-5.07-23.43-5.07-21.61,0-27.52,4.7-27.52,21.87v1.97c0,8.88,1.65,14.02,5.51,17.18,4.01,3.29,10.59,4.69,22.01,4.69,13.04,0,19.84-1.49,23.47-5.15,2.28-2.3,3.39-5.58,3.62-10.6l-10.65-.26c-.58,4.61-3.41,6.42-16.32,6.42ZM151.33,237.84c15.67,3.1,31.87,6.3,63.76,6.3s48.1-3.2,63.76-6.3c14.62-2.89,28.43-5.62,56.84-5.62s42.22,2.73,56.84,5.62c15.67,3.1,31.87,6.3,63.76,6.3s48.1-3.2,63.77-6.3c14.62-2.89,28.44-5.62,56.84-5.62s42.22,2.73,56.84,5.62c15.42,3.05,31.35,6.19,62.26,6.29.82,0,1.51-.67,1.51-1.49v-31.69c0-.82-.68-1.48-1.5-1.49-27.4-.09-40.98-2.78-55.34-5.61-15.67-3.1-31.87-6.3-63.77-6.3s-48.1,3.2-63.77,6.3c-14.62,2.89-28.44,5.62-56.84,5.62s-42.21-2.73-56.84-5.62c-15.67-3.1-31.87-6.3-63.77-6.3s-48.1,3.2-63.76,6.3c-14.62,2.89-28.44,5.62-56.84,5.62s-42.21-2.73-56.84-5.62c-7.39-1.46-14.93-2.94-24.15-4.1v-20.13c6.19.91,11.65,1.98,17.22,3.08,15.67,3.1,31.87,6.3,63.77,6.3s48.1-3.2,63.77-6.3c14.62-2.89,28.44-5.62,56.84-5.62s42.21,2.73,56.84,5.62c15.67,3.1,31.87,6.3,63.77,6.3s48.1-3.2,63.76-6.3c14.62-2.89,28.44-5.62,56.84-5.62s42.21,2.73,56.84,5.62c15.42,3.05,31.35,6.19,62.26,6.29.82,0,1.51-.67,1.51-1.49v-31.69c0-.82-.68-1.48-1.5-1.49-27.4-.09-40.98-2.78-55.34-5.61-15.67-3.1-31.87-6.3-63.76-6.3s-48.1,3.2-63.76,6.3c-14.62,2.89-28.43,5.62-56.84,5.62-28.4,0-42.22-2.73-56.84-5.62-15.67-3.1-31.87-6.3-63.76-6.3s-48.1,3.2-63.77,6.3c-14.62,2.89-28.44,5.62-56.84,5.62-28.4,0-42.22-2.73-56.84-5.62-15.42-3.05-30.6-6.19-61.51-6.29h-.75c-.82,0-1.51.66-1.51,1.49v141.93c0,.82.67,1.51,1.49,1.51h0c27.39.09,40.98,2.78,55.34,5.62,15.67,3.1,31.87,6.3,63.76,6.3s48.1-3.2,63.76-6.3c14.62-2.89,28.43-5.62,56.84-5.62s42.21,2.73,56.84,5.62c15.67,3.1,31.87,6.3,63.77,6.3s48.1-3.2,63.77-6.3c14.62-2.89,28.44-5.62,56.84-5.62s42.22,2.73,56.84,5.62c15.42,3.05,31.35,6.19,62.26,6.29.82,0,1.51-.67,1.51-1.49v-31.69c0-.82-.68-1.48-1.5-1.49-27.4-.09-40.98-2.78-55.34-5.62-15.67-3.1-31.87-6.3-63.77-6.3s-48.1,3.2-63.77,6.3c-14.62,2.89-28.44,5.62-56.84,5.62s-42.21-2.73-56.84-5.62c-15.67-3.1-31.87-6.3-63.77-6.3s-48.1,3.2-63.76,6.3c-14.62,2.89-28.44,5.62-56.84,5.62s-42.21-2.73-56.84-5.62c-7.39-1.46-14.92-2.94-24.15-4.1v-20.12c6.19.91,11.65,1.98,17.22,3.08ZM594.81,423.87c-21.85,0-27.83,4.7-27.83,21.87v1.97c0,17.17,5.98,21.87,27.83,21.87s27.89-4.7,27.89-21.87v-1.97c0-17.17-6-21.87-27.89-21.87ZM611.77,446.97c0,10.4-2,13.02-16.95,13.02s-16.89-2.78-16.89-13.02v-.49c0-10.25,2.1-13.02,16.89-13.02,7.79,0,11.72.72,14,2.58,2.46,1.99,2.95,5.47,2.95,10.44v.49ZM486.98,424.92v-.19s-10.82,0-10.82,0v.19c.07,2.58.07,4.6.07,7.67v9.15h-31.26v-9.15c0-3.14,0-5.04.06-7.67v-.19s-10.82,0-10.82,0v.19c.07,2.58.07,4.6.07,7.67v26.05c0,4.51,0,7-.06,9.89v.19s10.82,0,10.82,0v-.19c-.06-3.07-.06-5.06-.06-9.89v-7.55h31.26v7.55c0,4.51,0,7-.06,9.89v.19s10.82,0,10.82,0v-.19c-.06-3.07-.06-5.06-.06-9.89v-26.05c0-3.14,0-5.04.06-7.67Z"/></svg>