<?xml version="1.0" encoding="UTF-8"?><svg id="Layer_1" xmlns="http://www.w3.org/2000/svg" viewBox="0 0 792 612"><defs><style>.cls-1{fill:#b4b4b5;}</style></defs><polygon class="cls-1" points="83.33 269.2 84.01 269.87 84.01 276.33 83.33 277.01 39.61 277.01 39.61 307.68 72.57 307.68 73.24 308.35 73.24 314.81 72.57 315.48 39.61 315.48 39.61 355.58 87.37 355.58 88.04 356.25 88.04 362.71 87.37 363.38 32.34 363.38 31.67 362.71 31.67 269.87 32.34 269.2 83.33 269.2"/><path class="cls-1" d="M152.48,269.2c20.99,0,32.96,11.43,32.96,27.58s-11.97,27.45-32.96,27.45h-17.49v38.48l-.67.67h-6.59l-.67-.67v-92.84l.54-.67h24.89ZM134.99,316.42h17.49c15.07,0,24.09-7.4,24.09-19.64s-9.01-19.78-24.09-19.78h-17.49v39.42Z"/><polygon class="cls-1" points="230.51 269.2 231.19 269.87 231.19 362.71 230.51 363.38 223.92 363.38 223.25 362.71 223.25 269.87 223.92 269.2 230.51 269.2"/><path class="cls-1" d="M352.94,286.83c-9.01-7.4-20.18-11.44-31.62-11.44-22.34,0-40.77,18.3-40.77,40.9s18.43,40.9,40.77,40.9c11.43,0,22.6-4.04,31.62-11.43l.67.67v8.88c-8.74,6.33-19.51,10.09-32.29,10.09-27.58,0-49.78-22.2-49.78-49.11s22.2-49.1,49.78-49.1c12.78,0,23.54,3.77,32.29,10.09v8.88l-.67.67Z"/><path class="cls-1" d="M402.72,269.2l.67.67v50.45c0,23.68,12.78,36.87,31.08,36.87s30.94-13.18,30.94-36.87v-50.45l.67-.67h6.59l.67.67v51.8c0,27.58-16.01,43.73-38.88,43.73s-39.02-16.15-39.02-43.73v-51.8l.67-.67h6.59Z"/><polygon class="cls-1" points="584.35 269.2 585.02 269.87 585.02 276.33 584.35 277.01 551.25 277.01 551.25 362.71 550.58 363.38 544.12 363.38 543.45 362.71 543.45 277.01 510.35 277.01 509.68 276.33 509.68 269.87 510.35 269.2 584.35 269.2"/><polygon class="cls-1" points="628.61 269.2 629.28 269.87 629.28 362.71 628.61 363.38 622.02 363.38 621.34 362.71 621.34 269.87 622.02 269.2 628.61 269.2"/><path class="cls-1" d="M711.21,285.21c-4.31-6.06-9.15-9.82-16.68-9.82-8.07,0-14.53,6.32-14.53,14.66,0,17.9,44.8,17.63,44.8,46.42,0,16.01-12.92,28.92-28.93,28.92-13.45,0-23.54-7.4-28.25-19.5l5.65-4.17h1.35c4.04,10.09,11.84,15.47,21.26,15.47,11.3,0,19.91-9.01,19.91-20.72,0-21.53-44.67-20.99-44.67-46.42,0-12.65,10.36-22.87,23.41-22.87,10.76,0,18.84,6.06,23.54,14.13l-5.52,3.9h-1.35Z"/><path class="cls-1" d="M749.77,246.6c5.8,0,10.56,4.76,10.56,10.56s-4.76,10.5-10.56,10.5-10.5-4.71-10.5-10.5,4.71-10.56,10.5-10.56M749.82,265.08c4.4,0,7.97-3.52,7.97-7.92s-3.57-7.97-7.97-7.97-7.92,3.57-7.92,7.97,3.52,7.92,7.92,7.92M746.1,252.09h4.71c1.97,0,3.26,1.5,3.26,3.26,0,1.45-.88,2.64-2.22,3.05l2.59,3.62h-2.9l-2.17-3.36h-.78v3.36h-2.48v-9.93ZM751.58,255.35c0-1.04-.78-1.24-1.55-1.24h-1.45v2.49h1.45c.78,0,1.55-.21,1.55-1.24"/></svg>