<?xml version="1.0" encoding="UTF-8"?><svg id="Layer_1" xmlns="http://www.w3.org/2000/svg" viewBox="0 0 792 612"><defs><style>.cls-1{fill:#b4b4b5;}</style></defs><path class="cls-1" d="M482.25,307.96l6.47-6.96-41.02-42.22c49.38-4.08,36.55-40.62,36.55-40.62-12.5-30.87-46.28-15.99-46.28-15.99-.6.8-21.2,89.96-21.2,89.96-.52,7.2-4.83,5.04-4.83,5.04-53.78-22.15-78.77.48-78.77.48-.34.32-.6.72-.78,1.2-.17.48-.17.88-.09,1.36.09.48.34.88.6,1.28.34.4.78.64,1.21.88.95.32,1.9.32,2.84.16.95-.16,1.81-.56,2.59-1.12,27.92-18.31,64.04,0,64.04,0,5.08,4.32-3.02,3.04-3.02,3.04-61.28-19.99-67.4,11.84-67.4,11.84-1.38,19.83,25.34,21.99,25.34,21.99h21.29c1.98-5.52,3.45-6,3.45-6,14.48-4,32.67-20.47,32.67-20.47,24.65,10.64,38.78,6.72,38.78,6.72,2.16-.48,4.14-1.44,5.86-2.8,1.73-1.28,3.02-2.96,3.97-4.8.86-1.84,1.29-3.84,1.21-5.92-.09-2-.69-4-1.72-5.76-1.12-2.4-2.84-4.64-5-6.4-2.15-1.76-4.65-3.2-7.41-4-1.12-.08-2.33.16-3.28.72-.34.08-.6.32-.86.56-.26.24-.34.56-.43.88,0,.32,0,.64.17.96.17.32.43.48.69.64,1.72.32,3.36,1.12,4.65,2.24,1.29,1.12,2.24,2.56,2.67,4.16,1.03,15.75-27.24,5.92-27.24,5.92l8.62-40.94,45.68,43.98ZM451.48,209.04s16.38-4.64,20.08,14.16c0,0,3.79,18.47-15.08,26.15,0,0-10.86,4.32-15.34-1.6l10.34-38.71ZM361.33,329.63c-2.24.08-4.48-.16-6.72-.56-15.69-2.96-10.86-14.71-10.86-14.71,11.72-22.23,56.97-3.12,56.97-3.12,1.81,2.32-7.93,8.72-7.93,8.72-9.65,5.12-20.34,8.32-31.46,9.44v.24Z"/><path class="cls-1" d="M405.89,271.38l22.32-88.21s-13.96,2.08-15.25,1.84c0,0-5.95,1.68,1.81,5.6l-12.32,47.02-5.52-1.6s1.9-16.23-8.96-4.64l-12.76-6.48,10.26-43.58h-19.82s-8.27-.24,4.83,8.24l-8.45,30.47s-23.53-5.52-34.3,14.23c0,0-8.79,21.75,22.15,27.59l-6.64,24.39s11.46-6.64,17.93-6l5.86-22.15c9.05-4.96,17.58-10.8,25.34-17.43,0,0,10,2.88,7.76,4.96,0,0-8.02,31.59-10,32.31,3.88,5.6,9.14,10.16,15.51,13.36,0,0,5.69,2.08,4.22-4.32,0,0-7.76-8.72-3.62-15.83M352.63,252.75c-21.89-3.2-14.82-18.39-14.82-18.39,7.15-13.04,22.93-6.88,22.93-6.88l-8.1,25.27ZM369.09,247.31l5.09-15.59,10.77,5.2-15.86,10.4Z"/><path class="cls-1" d="M332.35,293.77c-8.71-10.64-14.48-22.95-16.81-35.99-2.41-13.04-1.38-26.39,3.02-38.94,4.4-12.56,12.07-24.07,22.32-33.51,10.26-9.44,22.84-16.47,36.63-20.63,13.88-4.16,28.61-5.36,43.01-3.36,14.39,2,28.18,7.04,39.99,14.71,11.89,7.68,21.55,17.83,28.27,29.51,6.72,11.76,10.25,24.71,10.34,37.91.51,15.83-4.31,31.35-13.88,44.62,2.42,2.72,5.09,5.2,7.93,7.52,10.43-14.31,16.38-30.95,17.07-48.06.68-17.11-3.79-34.15-13.01-49.1-9.22-14.95-22.84-27.43-39.3-35.91-16.46-8.48-35.25-12.71-54.12-12.23-18.96.48-37.4,5.68-53.35,14.95-15.95,9.28-28.7,22.39-36.97,37.82-8.27,15.43-11.72,32.63-9.91,49.74,1.81,17.11,8.71,33.35,20.08,47.1,2.76-2.16,5.69-4.24,8.71-6.16Z"/><path class="cls-1" d="M263.04,444.85l30.68-111.72,2.76-8.72c0-3.76,3.96-11.2,0-9.92-9.31,1.28-18.53,3.36-27.32,6.4-.6,0-1.29.24-1.72.56-.52.4-.86.88-1.03,1.44-.17.56-.09,1.12.17,1.68.26.56.69.96,1.21,1.28,2.76,1.2,5.52,2.4,4.22,8.72l-30.77,109.32c-.6,1.6-1.03,3.28-1.38,4.96-1.38,2.48-1.29,3.68-5.43,3.76-4.14,1.28-4.05,6.24,0,6.16h31.46c2.76,0,2.67-3.68,1.38-4.96-4.14-2.4-5.52-3.68-4.22-8.72"/><path class="cls-1" d="M233.06,443.9c-1.47,1.36-3.45,2.24-5.52,2.48-2.67,0-2.76-3.68-1.46-8.72,0,0,14.74-47.18,14.74-55.82,0-9.92-7.07-23.51-30.34-23.35-23.27.16-39.65,11.44-39.56,22.55.52,1.92,1.81,3.52,3.53,4.64,1.72,1.12,3.88,1.68,6.03,1.52,15.08,0,12.24-19.91,27.24-19.99,10.94,0,15.17,7.36,12.5,17.43-5.43,14.87-69.72,18.95-69.47,54.94,0,13.6,8.36,22.23,22.06,22.15,17.75,0,29.99-15.03,29.99-15.03,0,0,0,12.4,11.03,12.32,11.03-.08,19.22-11.28,19.22-11.28v-3.84ZM209.61,422.87c-2.67,11.2-14.82,24.87-25.77,24.95-4.05,0-9.65-2.4-9.65-12.31,0-17.43,20.34-26.15,42.15-34.87l-6.72,22.23Z"/><path class="cls-1" d="M146.24,395.98c6.81-4,12.84-9.04,17.67-14.95,2.67-2.48,2.67-6.24-2.76-4.96-3.36,1.68-7.07,2.56-10.95,2.56l24.05-83.17v-2.48c1.03-2.24,3.02-4,5.43-4.96,4.05-1.28,4.05-5.04,0-5.04l-31.54.24c-2.76,0-2.67,3.76-1.38,4.96,4.14,1.2,6.9,3.68,5.6,9.92l-22.67,76.93c-17.84-6.08-34.47-20.79-50.94-25.67l14.65-53.5v-2.48c1.38-2.48,1.38-3.76,5.43-4.96,4.05-1.2,4.05-5.04,0-4.96h-31.55c-2.67,0-2.67,3.68-1.29,4.96,4.14,1.2,6.89,3.68,4.22,9.92l-13.36,48.38c-23.27,2.64-38.18,12.63-38.09,28.71-.17,2.96.34,5.84,1.38,8.64,1.03,2.8,2.76,5.28,4.91,7.52,2.15,2.16,4.83,3.92,7.76,5.2,2.93,1.28,6.12,2,9.39,2.08l-12.07,45.9c-.6,1.6-.95,3.28-1.29,4.96-1.38,2.56-1.38,3.76-5.52,3.76-4.05,1.2-4.05,6.16,0,6.16h31.54c2.67,0,2.67-3.68,1.38-4.96-1.9-.72-3.45-1.92-4.4-3.52-1.03-1.6-1.38-3.44-1.12-5.2l22.75-78.21c17.84,9.84,37.06,23.27,50.85,28.15l-13.45,48.38c-.6,1.6-1.12,3.28-1.38,4.96-1.38,2.48-1.38,3.68-5.43,3.76-4.05,1.28-3.97,6.24,0,6.24h31.46c2.76,0,2.76-3.68,1.29-4.96-4.05-2.48-5.52-3.68-4.14-8.72l13.53-49.58ZM48.85,377.99c-2.07,1.2-4.4,2-6.81,2.56-1.55.16-3.1,0-4.57-.4-1.46-.4-2.84-1.12-4.05-2.08-1.21-.96-2.07-2.08-2.76-3.36-.69-1.28-1.03-2.64-1.03-4.08,0-6.24,5.43-12.4,16.37-12.47,2.76-.24,5.6.16,8.19,1.2l-5.34,18.63Z"/><path class="cls-1" d="M386.17,322.52v-1.2c1.21-3.2,4.22-9.04,1.72-9.92h-1.81c-9.31,1.36-18.44,3.52-27.32,6.4-2.76,0-2.67,3.76-1.29,4.96,4.05,1.2,5.43,2.4,4.14,7.36l-1.38,6.24c-2.67,11.2-7.33,23.91-8.62,32.55-2.16-3.52-5.43-6.4-9.31-8.32-3.88-1.92-8.27-2.88-12.76-2.72-28.87,0-51.8,33.83-51.63,63.49.26,26.15,12.67,38.31,26.37,38.23,16.37,0,27.23-13.76,29.99-16.31,0,8.72-2.67,16.15,1.47,14.87,4.05-2.48,23.18-12.47,25.94-13.75,2.76-1.28,1.29-3.68-1.47-4.96-4.05,0-8.19,0-6.89-7.44l30.08-100.84,2.76-8.64ZM342.21,401.05c-1.12,6.72-2.93,13.36-5.26,19.83-4.05,12.4-10.86,23.59-20.43,23.67-13.7,0-15.08-12.31-15.17-24.71,0-16.07,11.89-49.58,32.41-49.74,8.27,0,12.32,4.8,12.41,13.51-.69,6-1.98,11.84-3.96,17.43Z"/><path class="cls-1" d="M704.64,346.82c-.09,4.4-1.47,8.64-4.05,12.39l1.38,2.48s17.75-12.48,17.58-27.35c.26-2.96-.69-5.92-2.76-8.24-2.07-2.32-5.08-3.76-8.36-4.16-3.62.08-7.07,1.36-9.65,3.68-2.5,2.32-3.97,5.44-3.97,8.72.26,2.64,1.21,5.2,2.93,7.36,1.73,2.16,4.05,3.92,6.73,4.96"/><path class="cls-1" d="M547.81,435.76s14.73-47.18,16.03-55.82c0-9.92-7.07-23.51-30.34-23.35-23.27.16-39.64,11.44-39.56,22.55.43,1.76,1.47,3.28,2.93,4.4,1.47,1.12,3.36,1.76,5.34,1.76,16.38,0,12.15-19.91,28.61-19.99,9.66,0,13.7,7.36,11.03,17.43-4.05,14.87-68.34,18.95-68.09,54.94,0,13.59,8.45,22.23,20.77,22.15,19.22,0,31.37-15.03,31.37-15.03,0,0,0,12.31,9.66,12.31,12.32,0,20.51-11.28,20.51-11.28v-3.76c-1.9,1.6-4.31,2.48-6.89,2.56-1.37,0-1.37-3.68-1.47-8.72M532.64,420.97c-3.96,11.2-16.2,24.87-25.77,24.95-4.05,0-9.66-2.4-9.66-12.4,0-17.43,20.35-26.15,40.85-34.87l-5.43,22.31Z"/><path class="cls-1" d="M395.24,337.46c-2.67,7.44,1.46,12.39,9.65,12.39,3.88-.16,7.59-1.44,10.6-3.68,2.93-2.24,5-5.36,5.77-8.8.69-1.36,1.03-2.96.86-4.48-.17-1.52-.78-2.96-1.72-4.24-.95-1.28-2.33-2.24-3.79-2.88-1.47-.64-3.19-.88-4.91-.8-3.88.16-7.58,1.44-10.51,3.68-3.1,2.32-5.17,5.44-5.95,8.8Z"/><path class="cls-1" d="M758.26,358.87c-6.12-2.16-12.67-3.44-19.22-3.6-4.4-.16-8.88.48-13.01,1.92-4.14,1.44-7.93,3.6-11.12,6.4-3.19,2.8-5.69,6.16-7.42,9.84-1.72,3.68-2.58,7.68-2.5,11.68,0,14.87,18.01,23.43,31.72,32.07,2.84,1.84,5.17,4.24,6.89,7.04,1.64,2.8,2.59,5.84,2.76,9.04,0,6.16-6.72,14.87-20.42,15.03h-4.14c-12.41-3.6-12.5-18.47-12.5-22.23s-5.51-3.68-6.81,0c-1.37,2.48-2.58,14.87-3.96,19.83,3.79,3.84,8.45,6.88,13.79,8.72,6.3,1.6,12.75,2.4,19.22,2.32,8.88.08,17.41-3.04,23.79-8.64,6.37-5.6,10-13.28,10.17-21.27,0-19.83-19.22-24.63-34.47-38.23-2.07-1.52-3.71-3.44-4.91-5.52-1.21-2.16-1.9-4.48-2.07-6.8,0-6.16,5.43-12.4,16.38-12.47,3.7.32,7.41,1.2,10.94,2.4,8.28,2.4,9.65,9.84,8.36,16.07,0,3.68,6.81,3.68,6.81,1.2,1.38-3.68,4.05-11.12,6.72-17.43-4.4-3.36-9.57-5.84-15.08-7.28"/><path class="cls-1" d="M676.06,355.7c-12.41,0-24.65,10.08-27.32,13.83-1.38-6.16-5.51-13.59-16.55-13.51-12.24,0-23.27,10.08-27.32,13.83v-4.96c1.38-4.96,2.67-9.92-4.22-8.72-7.59,2.48-15.34,4.64-23.19,6.4-2.76,1.28-2.67,4.96,0,4.96,2.07.48,3.97,1.6,5.17,3.2,1.29,1.6,1.9,3.52,1.73,5.52l-17.24,65.65c-.6,1.76-1.55,3.44-2.76,4.96.08.48.08,1.04-.08,1.52-.17.48-.43.96-.86,1.28-.43.4-.87.64-1.38.8-.52.16-1.12.24-1.64.16-4.05,1.28-4.05,6.16,0,6.16h30.17c4.05,0,4.05-3.76,1.29-4.96-1.81-1.04-3.19-2.56-3.96-4.32-.78-1.76-.86-3.76-.26-5.6l18.62-65.74c1.29-1.52,2.93-2.8,4.82-3.6,1.9-.88,3.97-1.36,6.12-1.44,9.66,0,9.66,7.36,8.36,11.12l-16.12,59.34c-.6,1.6-1.04,3.28-1.29,4.96-1.04,2.24-3.02,4-5.43,5.04-.69,0-1.47.24-1.99.72-.51.48-.78,1.12-.78,1.76s.26,1.28.78,1.76c.52.48,1.21.72,1.99.72h31.46c2.76,0,2.67-3.68,1.37-4.96-4.22-2.4-6.9-3.68-5.51-9.84l18.7-63.26v-1.36c1.29-1.92,3.1-3.52,5.26-4.56,2.15-1.12,4.57-1.68,7.06-1.68,1.47,0,2.85.32,4.14.96,1.29.64,2.41,1.52,3.19,2.64.78,1.12,1.3,2.32,1.47,3.68.18,1.28,0,2.64-.6,3.84l-15.95,59.58c-.61,1.6-1.04,3.28-1.38,4.96-1.03,2.24-2.93,4-5.43,4.96-.69,0-1.47.24-1.98.72-.52.48-.78,1.12-.78,1.76s.26,1.28.78,1.76c.51.48,1.21.72,1.98.72h31.55c2.76,0,2.67-3.76,1.37-4.96-4.05-2.48-6.89-3.68-5.6-9.92l17.32-62.06c2.67-7.44,1.29-23.59-15.17-23.43"/><path class="cls-1" d="M493.98,367.96c0-3.68-1.38-11.12-13.79-11.04-10.95,0-20.43,11.28-24.48,17.43l1.29-8.72c0-4.96,1.38-9.92-4.14-8.72-8.02,2.56-16.29,4.72-24.56,6.4-2.67,1.28-2.67,5.04,0,4.96,2.76,1.2,8.27,2.4,6.89,8.72l-17.32,65.74c-.6,1.6-1.03,3.28-1.38,4.96-1.38,2.4-2.67,3.68-5.43,3.68-4.14,1.28-4.05,6.24,0,6.24h31.37c2.76,0,2.76-3.68,1.38-4.96-4.05-2.4-6.81-3.68-5.52-9.84l13.36-47.18c4.05-9.92,9.65-22.31,13.53-22.39,5.52,0,4.14,7.44,12.41,7.36,3.96,0,7.75-1.2,10.69-3.52,3.02-2.32,5-5.52,5.6-8.96"/><path class="cls-1" d="M395.94,442.83l17.32-65.73,3.96-11.2c1.29-4.96,2.67-9.92-2.76-8.72-5.52,1.2-24.65,6.4-27.41,6.4-4.05,1.28-4.05,4.96-1.29,4.96,2.76,1.2,8.19,2.4,5.52,8.72l-17.32,65.81c-.6,1.6-1.03,3.28-1.29,4.96-1.38,2.4-1.38,3.68-5.52,3.76-4.05,1.28-4.05,6.24,0,6.16h31.46c2.67,0,2.67-3.76,1.38-4.96-4.14-2.48-6.9-3.68-4.22-9.92"/></svg>