<?xml version="1.0" encoding="UTF-8"?><svg id="Layer_1" xmlns="http://www.w3.org/2000/svg" viewBox="0 0 792 612"><defs><style>.cls-1{fill:#b4b4b5;}</style></defs><polygon class="cls-1" points="446.6 309.13 401.44 373.62 401.44 373.62 401.44 373.62 356.28 309.13 318.92 309.13 330.49 321.47 330.49 425.21 353.09 425.21 353.09 343.99 401.44 413.03 449.79 343.98 449.79 425.21 472.39 425.21 472.39 321.47 483.96 309.13 446.6 309.13 446.6 309.13"/><path class="cls-1" d="M224.88,403.31c-19.92,0-36.13-16.21-36.13-36.13s16.21-36.14,36.13-36.14,36.14,16.21,36.14,36.14-16.21,36.13-36.14,36.13h0ZM224.88,306.88c-33.24,0-60.29,27.05-60.29,60.3s27.05,60.29,60.29,60.29,60.29-27.05,60.29-60.29-27.05-60.3-60.29-60.3h0Z"/><path class="cls-1" d="M578,403.31c-19.93,0-36.14-16.21-36.14-36.13s16.21-36.14,36.14-36.14,36.13,16.21,36.13,36.14-16.21,36.13-36.13,36.13h0ZM578,306.88c-33.25,0-60.29,27.05-60.29,60.3s27.05,60.29,60.29,60.29,60.29-27.05,60.29-60.29-27.05-60.3-60.29-60.3h0Z"/><path class="cls-1" d="M726.07,355.37c-5.78-.99-23.37-3.99-22.23-14.53.7-6.44,7.9-9.13,12.12-10.16,2.7-.66,5.57-.99,8.53-.99,9.59,0,18.69,3.61,22.12,8.77l1.08,1.63,19.41-12.89-1.08-1.63c-7.96-11.98-23.53-19.14-41.67-19.14-4.86,0-9.54.54-13.91,1.61-17.04,4.16-28.17,15.48-29.78,30.29-1.31,12.08,2.33,33.33,41.47,40.02,4.07.7,24.31,4.71,22.9,15.43-.87,6.57-7.93,9.2-13.71,10.25-2.31.42-4.78.63-7.34.63-12.21,0-24.33-4.79-27.59-10.92l-.92-1.72-20.57,10.95.92,1.73c7.33,13.76,26.79,23.38,47.34,23.38,4.1,0,8.25-.38,12.32-1.12,18.4-3.34,30.61-14.61,32.65-30.15,2.13-16.19-7.81-35.58-42.08-41.43h0Z"/><polygon class="cls-1" points="145.15 425.21 84.2 364.26 139.17 309.29 107.2 309.29 56.23 360.27 56.23 309.13 23.57 309.13 33.62 321.47 33.62 425.21 56.23 425.21 56.23 392.24 68.22 380.25 113.19 425.21 145.15 425.21 145.15 425.21"/><path class="cls-1" d="M367.56,209.83l-5.95,5.66c-2.02,1.62-4.72,2.51-7.61,2.51s-5.59-.89-7.61-2.51l-5.95-5.66c-1.15-1.09-2.97-1.05-4.07.09-1.1,1.15-1.06,2.96.09,4.05l6.03,5.74c.05.05.11.1.16.14,3.06,2.5,7.08,3.88,11.34,3.88s8.29-1.38,11.34-3.88c.05-.04.11-.09.16-.14l6.03-5.74c1.15-1.1,1.19-2.91.09-4.05-1.1-1.14-2.92-1.19-4.07-.09"/><path class="cls-1" d="M407.53,193.68c-.05-.05-.11-.1-.16-.14-3.06-2.5-7.08-3.87-11.34-3.87s-8.29,1.37-11.34,3.87c-.06.04-.11.09-.16.14l-6.03,5.74c-1.15,1.1-1.19,2.91-.09,4.05,1.1,1.14,2.92,1.19,4.07.09l5.95-5.66c2.02-1.62,4.72-2.51,7.61-2.51s5.59.89,7.61,2.51l5.95,5.66c.56.53,1.27.79,1.99.79.76,0,1.52-.3,2.08-.89,1.1-1.14,1.06-2.96-.09-4.05l-6.03-5.74Z"/><path class="cls-1" d="M451.61,209.83l-5.95,5.66c-2.02,1.62-4.72,2.51-7.61,2.51s-5.59-.89-7.61-2.51l-5.95-5.66c-1.15-1.09-2.97-1.05-4.07.09-1.1,1.15-1.06,2.96.09,4.05l6.03,5.74c.05.05.1.1.16.14,3.06,2.5,7.08,3.88,11.34,3.88s8.29-1.38,11.34-3.88c.06-.04.11-.09.16-.14l6.03-5.74c1.15-1.1,1.19-2.91.09-4.05-1.1-1.14-2.92-1.19-4.07-.09"/><path class="cls-1" d="M367.56,261.74l-5.95,5.66c-2.02,1.62-4.72,2.51-7.61,2.51s-5.59-.89-7.61-2.51l-5.95-5.66c-1.15-1.09-2.97-1.05-4.07.09-1.1,1.15-1.06,2.96.09,4.05l6.03,5.74c.05.05.11.1.16.14,3.06,2.5,7.08,3.87,11.34,3.87s8.29-1.38,11.34-3.87c.06-.05.11-.09.16-.14l6.03-5.74c1.15-1.1,1.19-2.91.09-4.05-1.1-1.14-2.92-1.19-4.07-.09"/><path class="cls-1" d="M407.53,245.6c-.05-.05-.11-.1-.16-.14-3.06-2.5-7.08-3.88-11.34-3.88s-8.29,1.38-11.34,3.88c-.06.04-.11.09-.16.14l-6.03,5.74c-1.15,1.1-1.19,2.91-.09,4.05,1.1,1.14,2.92,1.18,4.07.09l5.95-5.66c2.02-1.62,4.72-2.51,7.61-2.51s5.59.89,7.61,2.51l5.95,5.66c.56.53,1.27.79,1.99.79.76,0,1.52-.29,2.08-.88,1.1-1.14,1.06-2.96-.09-4.05l-6.03-5.74Z"/><path class="cls-1" d="M451.61,261.74l-5.95,5.66c-2.02,1.62-4.72,2.51-7.61,2.51s-5.59-.89-7.61-2.51l-5.95-5.66c-1.15-1.09-2.97-1.05-4.07.09-1.1,1.15-1.06,2.96.09,4.05l6.03,5.74c.05.05.1.1.16.14,3.06,2.5,7.08,3.87,11.34,3.87s8.29-1.37,11.34-3.87c.06-.05.11-.09.16-.14l6.03-5.74c1.15-1.1,1.19-2.91.09-4.05-1.1-1.14-2.92-1.19-4.07-.09"/><path class="cls-1" d="M367.56,235.79l-5.95,5.66c-2.02,1.62-4.72,2.51-7.61,2.51s-5.59-.89-7.61-2.51l-5.95-5.66c-1.15-1.09-2.97-1.05-4.07.09-1.1,1.15-1.06,2.96.09,4.05l6.03,5.74c.05.05.11.1.16.14,3.06,2.5,7.08,3.87,11.34,3.87s8.28-1.38,11.34-3.87c.06-.05.11-.09.16-.14l6.03-5.74c1.15-1.1,1.19-2.91.09-4.05-1.1-1.14-2.92-1.19-4.07-.09"/><path class="cls-1" d="M407.53,219.64c-.05-.05-.11-.1-.16-.14-3.06-2.5-7.08-3.88-11.34-3.88s-8.29,1.38-11.34,3.88c-.06.04-.11.09-.16.14l-6.03,5.74c-1.15,1.1-1.19,2.91-.09,4.05,1.1,1.14,2.92,1.19,4.07.09l5.95-5.66c2.02-1.62,4.72-2.51,7.61-2.51s5.59.89,7.61,2.51l5.95,5.66c.56.53,1.27.79,1.99.79.76,0,1.52-.3,2.08-.89,1.1-1.14,1.06-2.96-.09-4.05l-6.03-5.74Z"/><path class="cls-1" d="M451.61,235.79l-5.95,5.66c-2.02,1.62-4.72,2.51-7.61,2.51s-5.59-.89-7.61-2.51l-5.95-5.66c-1.15-1.09-2.97-1.05-4.07.09-1.1,1.15-1.06,2.96.09,4.05l6.03,5.74c.05.05.1.1.16.14,3.06,2.5,7.08,3.87,11.34,3.87s8.28-1.38,11.34-3.87c.06-.05.11-.09.16-.14l6.03-5.74c1.15-1.1,1.19-2.91.09-4.05-1.1-1.14-2.92-1.19-4.07-.09"/><path class="cls-1" d="M283.78,232.65c0-1.58-1.29-2.86-2.88-2.86h-16.13c.46-2.63,1.56-5.05,3.2-6.99l14.96-14.9c1.12-1.12,1.12-2.94,0-4.06-1.12-1.12-2.95-1.12-4.07,0l-15.04,14.98c-.05.05-.1.1-.15.16-.56.65-1.07,1.36-1.54,2.08-3-6.99-8.64-12.6-15.65-15.59.72-.47,1.43-.97,2.09-1.53.06-.05.11-.1.16-.15l15.04-14.98c1.12-1.12,1.12-2.93,0-4.05-1.12-1.12-2.95-1.12-4.07,0l-14.96,14.9c-1.95,1.64-4.37,2.73-7.02,3.19v-16.06c0-1.58-1.29-2.87-2.88-2.87s-2.88,1.28-2.88,2.87v16.06c-2.64-.46-5.07-1.55-7.02-3.19l-14.96-14.9c-1.12-1.12-2.95-1.12-4.07,0-1.13,1.12-1.13,2.93,0,4.05l15.04,14.98c.05.05.1.1.16.15.66.56,1.36,1.06,2.09,1.53-7.02,2.99-12.65,8.6-15.65,15.59-.47-.72-.97-1.42-1.54-2.08-.05-.06-.09-.11-.15-.16l-15.04-14.98c-1.12-1.12-2.95-1.12-4.07,0-1.12,1.12-1.12,2.93,0,4.06l14.96,14.9c1.65,1.94,2.74,4.35,3.21,6.99h-16.13c-1.59,0-2.88,1.28-2.88,2.86s1.29,2.87,2.88,2.87h16.13c-.46,2.63-1.56,5.05-3.21,6.99l-14.96,14.9c-1.12,1.12-1.12,2.93,0,4.06.56.56,1.3.84,2.03.84s1.47-.28,2.04-.84l15.04-14.98c.05-.05.1-.1.15-.16.57-.65,1.07-1.36,1.54-2.08,3,6.98,8.64,12.6,15.65,15.59-.73.47-1.43.97-2.09,1.53-.06.05-.11.1-.16.15l-15.04,14.98c-1.13,1.12-1.13,2.93,0,4.05,1.12,1.12,2.94,1.12,4.07,0l14.96-14.9c1.95-1.64,4.37-2.73,7.01-3.19v16.06c0,1.58,1.29,2.87,2.88,2.87s2.88-1.28,2.88-2.87v-16.06c2.65.46,5.07,1.55,7.02,3.19l14.96,14.9c.56.56,1.3.84,2.03.84s1.47-.28,2.04-.84c1.12-1.12,1.12-2.93,0-4.05l-15.04-14.98c-.05-.05-.1-.1-.16-.15-.66-.56-1.36-1.06-2.09-1.53,7.01-2.99,12.65-8.6,15.65-15.59.47.72.98,1.42,1.54,2.08.05.06.1.11.15.16l15.04,14.98c.56.56,1.3.84,2.03.84s1.47-.28,2.03-.84c1.12-1.12,1.12-2.93,0-4.06l-14.96-14.9c-1.65-1.94-2.74-4.35-3.2-6.99h16.13c1.59,0,2.88-1.28,2.88-2.87M237.72,256.29v-10.88c0-1.58-1.29-2.86-2.88-2.86s-2.88,1.28-2.88,2.86v10.88c-10.89-1.31-19.54-9.93-20.85-20.77h10.92c1.59,0,2.88-1.28,2.88-2.87s-1.29-2.86-2.88-2.86h-10.92c1.31-10.84,9.97-19.46,20.85-20.77v10.88c0,1.58,1.29,2.86,2.88,2.86s2.88-1.28,2.88-2.86v-10.88c10.89,1.31,19.54,9.93,20.85,20.77h-10.92c-1.59,0-2.88,1.28-2.88,2.86s1.29,2.87,2.88,2.87h10.92c-1.31,10.84-9.97,19.46-20.85,20.77"/><path class="cls-1" d="M581.34,205.71h-13.82c-1.59,0-2.88,1.28-2.88,2.86v10.89h-14.97v-10.89c0-1.58-1.29-2.86-2.88-2.86h-13.82c-1.59,0-2.88,1.28-2.88,2.86v13.76c0,1.58,1.29,2.86,2.88,2.86h10.94v14.91h-10.94c-1.59,0-2.88,1.28-2.88,2.86v13.76c0,1.58,1.29,2.87,2.88,2.87h13.82c1.59,0,2.88-1.28,2.88-2.87v-10.89h14.97v10.89c0,1.58,1.29,2.87,2.88,2.87h13.82c1.59,0,2.88-1.28,2.88-2.87v-13.76c0-1.58-1.29-2.86-2.88-2.86h-10.94v-14.91h10.94c1.59,0,2.88-1.28,2.88-2.86v-13.76c0-1.58-1.29-2.86-2.88-2.86M535.86,211.44h8.06v8.03h-8.06v-8.03ZM543.91,253.86h-8.06v-8.03h8.06v8.03ZM549.67,225.2h14.97v14.9h-14.97v-14.9ZM578.46,253.86h-8.06v-8.03h8.06v8.03ZM578.46,219.47h-8.06v-8.03h8.06v8.03Z"/><path class="cls-1" d="M553.7,196.54h6.91c1.59,0,2.88-1.28,2.88-2.87v-6.88c0-1.58-1.29-2.86-2.88-2.86h-6.91c-1.59,0-2.88,1.28-2.88,2.86v6.88c0,1.58,1.29,2.87,2.88,2.87"/><path class="cls-1" d="M560.61,268.77h-6.91c-1.59,0-2.88,1.28-2.88,2.87v6.88c0,1.58,1.29,2.86,2.88,2.86h6.91c1.59,0,2.88-1.28,2.88-2.86v-6.88c0-1.58-1.29-2.87-2.88-2.87"/><path class="cls-1" d="M603.21,226.35h-6.91c-1.59,0-2.88,1.28-2.88,2.87v6.88c0,1.58,1.29,2.86,2.88,2.86h6.91c1.59,0,2.88-1.28,2.88-2.86v-6.88c0-1.58-1.29-2.87-2.88-2.87"/><path class="cls-1" d="M518.01,226.35h-6.91c-1.59,0-2.88,1.28-2.88,2.87v6.88c0,1.58,1.29,2.86,2.88,2.86h6.91c1.59,0,2.88-1.28,2.88-2.86v-6.88c0-1.58-1.29-2.87-2.88-2.87"/></svg>