<?xml version="1.0" encoding="UTF-8"?><svg id="Layer_1" xmlns="http://www.w3.org/2000/svg" viewBox="0 0 792 612"><defs><style>.cls-1{fill:#b4b4b5;}</style></defs><path class="cls-1" d="M12.09,299.93c0-33.95,19.7-49.28,45.31-49.28,16.2,0,29.55,6.79,37.43,19.49,7.66-12.7,21.01-19.49,37.43-19.49,25.61,0,45.31,15.33,45.31,49.28v61.77h-26.05v-61.77c0-17.74-9.2-24.97-21.89-24.97s-21.67,7.44-21.67,24.97v61.77h-26.05v-61.77c0-17.52-9.41-24.97-21.89-24.97s-21.89,7.23-21.89,24.97v61.77H12.09v-61.77Z"/><path class="cls-1" d="M287.61,308.19c.26-18.92-11.91-32.59-30.41-33.21-17.82-.6-33.11,14.38-33.28,32.22-.17,18.83,12.21,32.4,30.67,33.01,17.69.58,32.77-14.31,33.02-32.02ZM197.66,307.59c0-32.85,24.08-56.95,58.22-56.95s58.22,24.1,58.22,56.95-24.08,56.95-58.22,56.95-58.22-24.09-58.22-56.95Z"/><path class="cls-1" d="M596.92,227.04c0-8.91,6.53-15.44,15.79-15.44s15.79,6.53,15.79,15.44-6.53,15.44-15.79,15.44-15.79-6.53-15.79-15.44Z"/><path class="cls-1" d="M422.46,308c.18-18.83-12.2-32.42-30.68-33.02-17.69-.58-32.78,14.31-33.01,32.02-.26,18.92,11.92,32.58,30.41,33.2,17.82.6,33.11-14.38,33.28-32.21ZM332.72,308.47c0-36.58,25.77-59.8,62.1-57.69,27.69,1.61,52.28,25.99,53.79,53.7,2.17,39.79-26.49,60.06-53.73,60.06-15.54,0-28.45-6.57-36.12-18.61v54.48h-26.05v-91.93h0Z"/><path class="cls-1" d="M469.89,212.11h26.05v56.49c7.22-11.61,18.38-17.97,32.17-17.97,24.95,0,48.59,16.21,48.59,54.76v56.29h-26.05v-56.29c0-20.59-10.94-30.45-27.36-30.45s-27.36,10.29-27.36,30.45v56.29h-26.05v-149.57h0Z"/><path class="cls-1" d="M599.69,262.06v99.63h26.05v-99.63c-4,1.28-8.36,1.99-13.03,1.99s-9.02-.7-13.03-1.99h0Z"/><path class="cls-1" d="M770.29,360.65c-3.57-.19-6.65-2.99-7.04-6.55-.51-4.56,2.94-8.22,7.48-8.22,4.22,0,7.5,3.2,7.5,7.34,0,4.39-3.51,7.67-7.95,7.43ZM770.73,344.57c-5.9,0-10.67,5.25-8.75,11.4.85,2.74,3.15,4.81,5.91,5.58,6.21,1.72,12.02-2.43,12.02-8.33,0-4.88-4.15-8.65-9.19-8.65h0Z"/><path class="cls-1" d="M770.57,352.7h-1.76v-3.23h2.21c1.13,0,2.37.21,2.37,1.55,0,1.61-1.37,1.68-2.82,1.68ZM775.05,351.07c0-1.94-1.2-2.9-3.73-2.9h-4.15v10.14h1.65v-4.35h1.78l2.92,4.35h1.75l-3.01-4.47c1.55-.17,2.78-.91,2.78-2.78h0Z"/><path class="cls-1" d="M703.64,274.3c14.23,0,26.05,7.23,30.2,21.68h-60.41c4.16-14.24,15.54-21.68,30.2-21.68h0ZM729.04,330.82c-5.48,6.84-13.94,10.06-25.41,10.06-15.32,0-27.36-8.32-30.86-24.09h88.65v-9.2c0-32.85-23.64-56.95-57.78-56.95s-58.22,24.1-58.22,56.95,24.08,56.95,58.22,56.95c17.78,0,32.69-6.45,42.87-17.28l-17.47-16.44h0Z"/></svg>