<?xml version="1.0" encoding="UTF-8"?><svg id="Layer_1" xmlns="http://www.w3.org/2000/svg" viewBox="0 0 792 612"><defs><style>.cls-1{fill:#b4b4b5;}</style></defs><path class="cls-1" d="M770.3,340.72c1.22.7,2.17,1.67,2.86,2.9.69,1.23,1.03,2.61,1.03,4.15,0,1.54-.34,2.92-1.03,4.17-.69,1.24-1.64,2.21-2.86,2.91-1.22.7-2.6,1.05-4.13,1.05s-2.96-.35-4.18-1.05c-1.22-.7-2.17-1.67-2.86-2.91-.69-1.24-1.03-2.63-1.03-4.17,0-1.53.34-2.91,1.03-4.15.69-1.23,1.64-2.2,2.86-2.9,1.22-.7,2.61-1.05,4.18-1.05,1.56,0,2.92.35,4.13,1.05ZM770.79,352.49c1.18-1.22,1.77-2.79,1.77-4.72,0-1.93-.59-3.51-1.77-4.72-1.18-1.22-2.72-1.83-4.63-1.83-1.91,0-3.48.61-4.63,1.83-1.15,1.22-1.73,2.79-1.73,4.72,0,1.93.57,3.51,1.73,4.72,1.15,1.22,2.7,1.83,4.63,1.83,1.93,0,3.45-.61,4.63-1.83ZM769.24,347.71c-.33.44-.79.75-1.37.93l2.23,3.29-2.5.04-1.91-3.17h-.68s0,3.17,0,3.17h-2.07v-8.53s3.82,0,3.82,0c.9,0,1.62.24,2.17.71.54.48.81,1.13.81,1.94,0,.64-.17,1.17-.5,1.61ZM765.01,347.09h1.63c.29,0,.54-.08.74-.24.2-.16.3-.38.3-.67,0-.29-.1-.51-.3-.65-.2-.14-.45-.22-.74-.22h-1.63s0,1.79,0,1.79Z"/><path class="cls-1" d="M208.44,247.9l-86.75-48.51c-1.74-.97-3.71-1.48-5.71-1.48-2.01,0-3.97.51-5.71,1.48l-86.74,48.51c-1.74.97-3.18,2.37-4.18,4.05-1.01,1.68-1.53,3.59-1.53,5.54v97.01c0,1.94.52,3.85,1.53,5.54,1,1.68,2.44,3.08,4.18,4.05l86.74,48.51c1.74.97,3.71,1.48,5.71,1.48,2.01,0,3.97-.51,5.71-1.48l86.75-48.51c1.74-.97,3.18-2.37,4.18-4.05,1.01-1.68,1.54-3.59,1.54-5.54v-97.01c0-1.95-.53-3.86-1.54-5.54-1-1.68-2.44-3.08-4.18-4.05ZM164.5,348.25c-18.13-.02-36.09,3.52-52.77,10.39-16.68,6.88-31.76,16.96-44.31,29.63,3.32-11.5,5-23.39,4.99-35.33,0-17.57-3.66-34.97-10.78-51.13-7.12-16.16-17.54-30.76-30.65-42.92,11.87,3.22,24.15,4.85,36.47,4.83,18.13.02,36.07-3.52,52.75-10.4,16.67-6.88,31.74-16.95,44.3-29.62-6.57,22.74-6.65,46.78-.26,69.56,6.41,22.78,19.06,43.46,36.62,59.83-11.87-3.22-24.15-4.85-36.48-4.85h.11Z"/><path class="cls-1" d="M534.43,289.47c-4.94-.04-9.84,1-14.32,3.04h0l-1.69.84c-.49.22-1.03.35-1.57.39-.18.02-.37-.02-.53-.12-.15-.1-.27-.24-.32-.42-.25-.72-.72-1.36-1.35-1.81-.64-.45-1.4-.7-2.18-.71h-8.58c-.5,0-1.01.1-1.47.29-.46.19-.88.46-1.24.81-.36.35-.65.76-.84,1.21-.19.45-.29.94-.29,1.43v86.37c0,.49.1.98.29,1.44.19.46.48.87.84,1.22.35.35.78.63,1.25.82.47.18.97.28,1.47.28h8.58c.5,0,1-.1,1.46-.29.47-.19.88-.47,1.24-.82.36-.34.64-.76.83-1.21.19-.46.29-.94.29-1.44v-26.01c0-.98,0-1.82,1.14-1.82.49.04.97.19,1.41.42,4.66,2.29,9.8,3.52,15.02,3.6,5.22.08,10.39-1,15.13-3.15,4.74-2.15,8.92-5.32,12.22-9.27,3.3-3.95,5.65-8.58,6.85-13.53,1.21-4.96,1.26-10.12.13-15.1-1.13-4.98-3.39-9.64-6.63-13.64-3.23-4-7.36-7.24-12.05-9.46-4.7-2.23-9.85-3.39-15.07-3.39h0ZM534.43,340.67c-3.54,0-7-1.01-9.93-2.92-2.94-1.91-5.24-4.63-6.59-7.82-1.36-3.18-1.72-6.69-1.04-10.07.69-3.38,2.39-6.49,4.89-8.93,2.5-2.44,5.68-4.1,9.15-4.78,3.47-.67,7.05-.33,10.32.99,3.26,1.32,6.06,3.55,8.02,6.42,1.96,2.87,3.01,6.24,3.01,9.69,0,4.62-1.88,9.05-5.23,12.32-3.34,3.27-7.88,5.11-12.61,5.12h0Z"/><path class="cls-1" d="M455.79,289.47c-4.41.02-8.78.9-12.84,2.59-4.06,1.69-7.74,4.15-10.81,7.25-3.08,3.09-5.49,6.75-7.09,10.77-1.61,4.01-2.38,8.3-2.26,12.61-.14,4.34.62,8.66,2.23,12.7,1.61,4.05,4.04,7.73,7.16,10.83,3.11,3.1,6.83,5.56,10.93,7.22,4.11,1.66,8.52,2.5,12.97,2.45,8.84.23,17.44-2.89,23.97-8.71.29-.26.53-.58.7-.94.16-.36.25-.75.25-1.14,0-.39-.09-.78-.25-1.14-.17-.36-.41-.68-.7-.94l-6.39-7.4c-1.14-1.26-2.55-.98-4.27,0-3.69,2.54-8.08,3.94-12.59,4.02-3.93,0-7.7-1.43-10.59-4.02-2.88-2.59-4.66-6.14-4.98-9.95h41.48c.73-.02,1.45-.28,2-.75.56-.47.93-1.11,1.06-1.82,0-1.12.29-3.18.29-4.3.04-3.88-.72-7.73-2.23-11.31-1.5-3.59-3.74-6.85-6.56-9.58-2.81-2.73-6.17-4.89-9.86-6.34-3.69-1.45-7.63-2.16-11.61-2.1h0ZM442.63,314.81c.43-2.98,1.94-5.71,4.25-7.7,2.32-1.99,5.3-3.09,8.38-3.12,2.99.08,5.85,1.22,8.04,3.21,2.19,1.99,3.55,4.7,3.84,7.6h-24.51Z"/><path class="cls-1" d="M383.57,289.47c-4.41.02-8.77.9-12.84,2.59-4.06,1.69-7.74,4.15-10.81,7.25-3.07,3.09-5.49,6.75-7.09,10.77-1.61,4.01-2.37,8.3-2.25,12.61-.14,4.34.61,8.66,2.22,12.7,1.62,4.05,4.05,7.73,7.16,10.83,3.11,3.1,6.83,5.56,10.94,7.22,4.11,1.66,8.52,2.5,12.97,2.45,8.88.26,17.51-2.86,24.07-8.72.29-.26.54-.58.7-.94.16-.36.25-.75.25-1.14,0-.39-.09-.78-.25-1.14-.16-.36-.41-.68-.7-.94l-6.53-7.4c-1.11-1.26-2.55-.98-4.23,0-3.71,2.54-8.1,3.94-12.63,4.02-3.92,0-7.69-1.45-10.57-4.03-2.88-2.58-4.67-6.13-5-9.94h41.51c.75,0,1.47-.28,2.04-.76.57-.48.95-1.14,1.07-1.87.14-1.12.29-3.18.29-4.3.05-3.88-.71-7.73-2.22-11.32-1.51-3.59-3.75-6.85-6.58-9.58-2.82-2.73-6.19-4.88-9.89-6.32-3.69-1.44-7.64-2.14-11.63-2.05h0ZM370.55,314.81c.42-2.98,1.92-5.71,4.23-7.7,2.32-1.99,5.29-3.09,8.37-3.11,2.99.07,5.87,1.21,8.06,3.2,2.2,1.99,3.57,4.7,3.85,7.61h-24.51Z"/><path class="cls-1" d="M336.25,251.84h-13.65c-.83.01-1.61.34-2.19.91-.59.57-.92,1.33-.93,2.14l1.57,94.53c.02,1.32.56,2.58,1.51,3.51.95.93,2.23,1.47,3.58,1.49h6.22c.67,0,1.34-.12,1.96-.37.63-.25,1.2-.62,1.67-1.08.48-.46.86-1.02,1.1-1.63.26-.61.39-1.26.39-1.92l1.83-94.53c0-.79-.33-1.55-.9-2.12-.57-.57-1.34-.9-2.16-.93h0Z"/><path class="cls-1" d="M286.81,314.42c-5.95-2.35-8.93-3.32-8.93-6.23,0-2.1,1.57-3.6,5.52-3.6,4.64.31,9.19,1.44,13.42,3.32.67.28,1.43.33,2.13.12.69-.2,1.3-.64,1.7-1.24l4.1-8.02c.34-.76.39-1.62.13-2.41-.26-.79-.81-1.47-1.53-1.89-6.08-3.41-13.03-5.09-20.04-4.83-16.49,0-23.7,8.99-23.7,18.69,0,9.69,5.72,16.15,18.26,20.89,8.58,3.32,10.9,5.11,10.9,7.88,0,2.77-2.26,4.13-5.52,4.13-5.12-.21-10.14-1.49-14.72-3.74-.3-.21-.66-.35-1.03-.41-.37-.06-.74-.03-1.1.08-.36.11-.68.29-.95.55-.28.25-.48.56-.61.9l-4.38,8.46c-.25.58-.29,1.22-.1,1.83.18.6.55,1.13,1.07,1.5,6.4,4.04,13.92,6.07,21.53,5.81,16.43,0,25.76-8.86,25.76-19.39.03-12.35-9.48-17.71-21.93-22.4Z"/><path class="cls-1" d="M582.83,293.99c0-.8.34-1.57.92-2.14.59-.56,1.38-.88,2.2-.88h5.07c.59-.05,1.18.1,1.66.42.49.33.85.81,1,1.37l2.41,6.03c2.36-2.92,5.37-5.27,8.81-6.86,3.44-1.59,7.22-2.39,11.03-2.33,9.41,0,14.05,3.3,19.4,9.61,2.58-2.98,5.79-5.38,9.4-7.04,3.61-1.66,7.56-2.53,11.55-2.57,20.81,0,25.76,12.91,25.76,29.39v32.38c-.02.82-.37,1.59-.98,2.16-.61.57-1.42.87-2.25.86h-11.25c-.82,0-1.6-.33-2.18-.89-.58-.56-.91-1.33-.91-2.13v-32.8c0-8.24-3.1-13.32-11.26-13.32-2.46-.2-4.92.31-7.08,1.49-2.16,1.17-3.91,2.95-5.02,5.1,0,0,.29,3.16.29,6.03v33.52c-.03.79-.37,1.54-.94,2.1-.57.56-1.34.89-2.16.91h-11.45c-.41,0-.82-.07-1.19-.21-.38-.15-.72-.37-1.02-.65-.29-.28-.51-.62-.67-.99-.15-.37-.23-.77-.22-1.16v-32.82c0-8.24-2.41-13.32-10.7-13.32-8.31,0-10.97,5.59-12.51,9.89v36.31c-.05.79-.4,1.52-.99,2.07-.58.54-1.35.85-2.16.87h-11.46c-.81-.03-1.58-.35-2.15-.91-.58-.56-.91-1.31-.94-2.1l-.03-57.38Z"/><path class="cls-1" d="M725.32,289.61c3.96-.1,7.9.6,11.58,2.04,3.68,1.44,7.02,3.6,9.81,6.34,2.79,2.74,4.98,6.01,6.43,9.61,1.45,3.6,2.14,7.45,2.02,11.31-.03,1.37-.12,2.74-.29,4.11-.1.74-.47,1.43-1.03,1.94-.57.51-1.3.81-2.07.85h-41.62c.06,2.01.51,3.99,1.35,5.82.84,1.83,2.03,3.49,3.54,4.87,1.49,1.38,3.25,2.46,5.17,3.18,1.93.72,3.97,1.05,6.04.99,5.05.08,9.97-1.57,13.91-4.67,1.55-1.23,3.23-1.37,4.24,0l5.47,7.12c.28.28.49.62.63.98.13.37.19.76.17,1.15-.03.39-.14.77-.32,1.11-.19.35-.45.65-.76.89-6.73,5.64-15.32,8.71-24.19,8.63-19.4,0-32.88-15.09-32.88-33.21,0-18.13,13.71-33.08,32.83-33.08ZM737.43,314.75c-.09-1.52-.47-3.02-1.14-4.39-.68-1.38-1.62-2.61-2.78-3.63-1.17-1.02-2.52-1.81-3.99-2.31-1.47-.51-3.04-.73-4.6-.64-3.3-.25-6.58.75-9.15,2.8-2.57,2.04-4.23,4.97-4.65,8.18h26.31Z"/></svg>