<?xml version="1.0" encoding="UTF-8"?><svg id="Layer_1" xmlns="http://www.w3.org/2000/svg" viewBox="0 0 792 612"><defs><style>.cls-1{fill:#b4b4b5;}</style></defs><g id="_2LlLmZ"><path class="cls-1" d="M232.2,305.93c.25,54.72-44.96,100.41-101.7,98.96-52.98-1.36-97.43-45.19-96.23-101.27,1.13-53.31,45.41-98.02,101.86-96.51,53.1,1.42,96.16,45.03,96.07,98.82ZM111.78,261.96c-4.18.18-8.36.32-12.54.55-8.69.47-17.29,1.69-25.82,3.37-5.47,1.07-8.81,5.85-7.78,11.11.95,4.85,5.68,8.5,11.32,7.34,10.66-2.19,21.45-3.38,32.33-3.44,6.16-.04,12.34.26,18.48.74,13.43,1.06,26.54,3.85,39.35,8.02,9.18,2.98,18.03,6.75,26.61,11.16,1.86.95,3.81,1.33,5.87.9,3.89-.82,6.48-3.17,7.45-7,.97-3.8-.16-7.16-3.31-9.52-1.82-1.36-3.99-2.29-6.06-3.31-8.28-4.11-16.85-7.51-25.65-10.34-19.59-6.3-39.69-9.39-60.26-9.58ZM108.22,296.31c-4.28-.05-12,.54-19.68,1.71-3.92.59-7.83,1.29-11.69,2.2-3.78.89-6.1,4.62-5.56,8.42.52,3.69,3.84,6.57,7.66,6.43,1.57-.06,3.12-.52,4.68-.81,10.64-2,21.35-3.06,32.18-2.61,3.92.16,7.85.37,11.76.77,12,1.24,23.67,3.98,35,8.13,6.55,2.4,12.86,5.33,19.03,8.57,3.91,2.04,8.4.57,10.36-3.25,1.9-3.71.49-8.11-3.32-10.18-9.28-5.04-18.98-9.07-29.07-12.18-15.6-4.8-31.55-7.17-51.36-7.21ZM111.81,326.83c-2.88.14-5.77.26-8.65.41-7.4.39-14.68,1.63-21.9,3.3-3.19.73-5.25,3.89-4.56,6.94.74,3.27,3.84,5.21,7.16,4.47,1.23-.27,2.46-.57,3.69-.82,10.26-2.14,20.62-2.9,31.1-2.29,6.28.37,12.48,1.19,18.62,2.52,11.89,2.57,23.13,6.86,33.73,12.85.87.49,2,.79,2.99.75,2.74-.1,4.97-2.05,5.52-4.55.58-2.59-.66-5.15-3.13-6.53-7.83-4.38-15.98-7.99-24.54-10.71-13.02-4.14-26.37-6.18-40.04-6.33Z"/><path class="cls-1" d="M642.51,300.03v1.41c0,17.6,0,35.21,0,52.81,0,1.63-.09,1.73-1.69,1.73-5.79,0-11.58,0-17.36,0-1.55,0-1.67-.12-1.67-1.65,0-17.53,0-35.06,0-52.59v-1.71c-.49,0-.9,0-1.32,0-3.51,0-7.02,0-10.53,0-1.41,0-1.61-.2-1.61-1.65,0-4.48,0-8.96,0-13.45,0-1.47.14-1.6,1.61-1.6,3.51,0,7.02,0,10.53,0,.39,0,.78,0,1.32,0,0-.76,0-1.4,0-2.03,0-3.86-.14-7.72.74-11.53,1.06-4.62,2.96-8.81,6.22-12.3,3.67-3.92,8.24-6.13,13.54-6.82,5.99-.79,11.72.16,17.17,2.75.62.29,1.21.96,1.48,1.59,2.12,4.93,4.18,9.89,6.22,14.85.15.37.05.84.07,1.27-.42-.07-.91-.03-1.26-.23-3.29-1.85-6.67-3.53-10.51-3.74-6.62-.36-12.61,2.95-12.82,10.7-.05,1.79,0,3.59,0,5.51h1.39c9.33,0,18.67.02,28-.02,1.17,0,1.81.3,2.28,1.44,3.92,9.49,7.9,18.96,11.86,28.43,2.07,4.95,4.14,9.91,6.21,14.86.12.29.27.56.49,1.02.99-2.37,1.92-4.58,2.85-6.8,4.39-10.54,8.78-21.08,13.18-31.63.86-2.06,1.73-4.12,2.55-6.2.33-.83.81-1.13,1.72-1.12,5.97.04,11.94.02,17.91.02,1.54,0,1.75.31,1.12,1.74-5.27,11.97-10.54,23.94-15.81,35.91-4.65,10.55-9.29,21.11-13.93,31.66-3.67,8.34-7.36,16.68-11,25.04-.41.95-1.02,1.29-1.99,1.29-6.29-.01-12.59,0-18.88-.01-1.59,0-1.81-.39-1.17-1.81,3.97-8.72,7.94-17.45,11.88-26.19.17-.38.17-.98,0-1.37-5.13-11.21-10.29-22.4-15.44-33.6-2.32-5.04-4.63-10.09-6.98-15.12-.17-.35-.62-.82-.94-.82-5.06-.05-10.12-.04-15.36-.04Z"/><path class="cls-1" d="M375.45,297.92c2.22-2.69,4.24-5.56,6.68-8.03,5.15-5.21,11.55-7.7,18.88-7.88,7.64-.18,14.45,2.03,20.33,6.91,5.78,4.8,9.37,11.02,11.24,18.2,2.67,10.28,2.28,20.47-1.91,30.3-4.06,9.53-10.8,16.37-21.1,18.89-9.82,2.4-18.92.71-26.73-6.09-2.58-2.24-4.66-4.92-6.43-7.84-.2-.34-.42-.67-.64-1-.03-.04-.11-.05-.32-.13v1.3c0,11.53,0,23.05,0,34.58,0,1.62-.19,1.83-1.79,1.83-5.64,0-11.28,0-16.92,0-1.57,0-1.8-.25-1.8-1.85,0-30.68,0-61.36,0-92.04,0-1.6.15-1.75,1.72-1.75,5.75,0,11.5,0,17.25,0,1.37,0,1.54.17,1.54,1.57,0,4.01,0,8.02,0,12.03,0,.38,0,.77,0,.99ZM413.34,319.58l.32-.04c-.48-2.72-.74-5.49-1.5-8.13-1.24-4.35-3.76-7.92-7.91-9.96-6.5-3.18-12.77-2.35-18.6,1.72-4.68,3.27-7.48,7.98-9.64,13.15-.84,2-.94,3.8-.02,5.86,2.63,5.87,6.1,11.02,11.6,14.6,8.44,5.51,19.3,2.52,23.56-6.5,1.6-3.39,2.22-6.98,2.19-10.71Z"/><path class="cls-1" d="M273.22,333.44c0-3.29-.01-6.58.02-9.87,0-.42.26-.83.4-1.24.43.2.97.29,1.26.61,8.7,9.63,19.71,14.72,32.43,16.28,4.64.57,9.31.29,13.76-1.46,4.81-1.89,6.71-5.89,6.46-10.98-.21-4.15-2.86-6.43-6.23-8.15-4.01-2.05-8.32-3.21-12.63-4.43-6.45-1.82-12.97-3.48-19.09-6.29-4.54-2.08-8.71-4.68-11.79-8.73-2.99-3.93-4.23-8.47-4.56-13.31-.49-7.15,1.41-13.56,6.04-19.1,4.39-5.25,10.05-8.56,16.49-10.65,5.9-1.91,11.99-2.62,18.16-2.38,9.66.38,18.83,2.54,27.24,7.54,1.94,1.15,2.71,2.52,2.64,4.79-.16,5.13-.03,10.26-.08,15.4,0,.7-.15,1.66-.61,2.03-.74.58-1.43-.22-2.06-.7-7.27-5.62-15.39-9.22-24.58-10.13-5.6-.56-11.12-.17-16.28,2.38-1.9.94-3.57,2.22-4.72,4.03-2.28,3.6-2.29,8.7,3.72,11.05,4.56,1.78,9.25,3.25,13.92,4.7,5.78,1.8,11.64,3.38,17.14,5.97,5.07,2.39,9.76,5.31,13.27,9.82,3.08,3.94,4.53,8.47,4.88,13.41.37,5.24-.38,10.28-2.58,15.09-2.68,5.85-6.98,10.19-12.52,13.34-5.79,3.28-12.08,4.85-18.7,5.16-10.28.47-20.21-1.11-29.71-5.16-3.94-1.68-7.58-3.85-10.67-6.86-.72-.7-1.06-1.46-1.04-2.49.05-3.22.02-6.43.02-9.65Z"/><path class="cls-1" d="M479.59,357.86c-7.97-.18-15.5-1.89-22.29-6.15-10.26-6.43-16.07-15.77-17.36-27.77-1.2-11.19,1.7-21.26,9.26-29.75,5.16-5.79,11.67-9.51,19.2-11.29,9.82-2.33,19.54-1.95,28.83,2.2,13.04,5.82,20.5,16.01,22.15,30.13,1.28,10.96-1.58,20.9-8.93,29.32-6.24,7.14-14.24,11.13-23.54,12.59-2.42.38-4.88.48-7.31.71ZM481.88,339.72c4.82-.1,10.37-2.93,14.06-8.97,2.26-3.69,3.1-7.77,2.91-12.1-.17-3.99-1.17-7.71-3.45-10.98-4.2-6.02-10.1-8.58-17.37-8.07-5.38.38-9.86,2.64-13.22,6.88-3.48,4.39-4.63,9.47-4.3,15,.62,10.55,8.67,18.23,21.37,18.23Z"/><path class="cls-1" d="M533.67,300.03c-4.03,0-7.86,0-11.69,0-1.96,0-1.98-.02-1.98-2.01,0-2.31.04-4.63-.02-6.94-.02-.96.27-1.6,1.04-2.2,10.42-8.16,20.81-16.35,31.23-24.52.53-.42,1.22-.63,1.83-.93.14.67.4,1.34.41,2.01.03,5.49.02,10.99.02,16.48v1.41c.56,0,.98,0,1.4,0,5.43,0,10.85,0,16.28,0,1.41,0,1.53.13,1.53,1.56,0,4.52,0,9.04,0,13.55,0,1.44-.15,1.58-1.64,1.58-5.35,0-10.71,0-16.06,0h-1.44c-.03.44-.07.82-.07,1.19,0,9.36-.03,18.72.02,28.08.02,2.93.63,5.72,2.79,7.96,1.72,1.78,3.89,2.45,6.25,2.55,3.12.13,6.1-.44,8.9-1.9,1.27-.66,1.47-.52,1.47.92,0,4.3-.04,8.6.03,12.9.02,1.05-.38,1.57-1.24,2-3.57,1.78-7.37,2.72-11.31,3.08-4.94.45-9.81.15-14.47-1.75-6.05-2.47-9.87-6.96-11.83-13.1-1.08-3.4-1.43-6.91-1.43-10.46,0-9.98,0-19.95,0-29.93v-1.53Z"/><path class="cls-1" d="M580.66,319.66c0-11.56,0-23.12,0-34.68,0-1.55.09-1.64,1.66-1.65,5.68,0,11.35,0,17.03,0,2.08,0,2.14.06,2.14,2.11,0,22.18,0,44.37,0,66.55,0,.87-.01,1.73,0,2.6.01.93-.38,1.4-1.36,1.4-6.07-.01-12.15-.01-18.22,0-1,0-1.27-.48-1.27-1.43.02-11.63.01-23.27.01-34.9Z"/><path class="cls-1" d="M603.23,261.8c0,6.56-4.93,11.43-11.75,11.55-4.82.08-8.81-1.59-11.24-5.93-3.49-6.26-.72-15.21,7.92-16.9,4.44-.87,8.55-.01,11.91,3.27,2.13,2.08,3.15,4.78,3.15,8.02Z"/><path class="cls-1" d="M735.4,293.16c-.22-5.36,3.76-10.9,11.19-10.88,6.85.02,11.15,4.87,11.16,10.96,0,6.37-4.7,10.89-11.32,10.91-6.5.02-11.34-4.97-11.04-11ZM755.59,293.31c0-5.22-3.78-9-9.01-9.01-5.27,0-9.1,3.74-9.11,8.91,0,5.22,3.77,8.98,9.03,8.99,5.33,0,9.1-3.67,9.1-8.89Z"/><path class="cls-1" d="M748.76,293.84c1.1,1.42,2.12,2.72,3.15,4.04-1.96.58-2.84.3-3.98-1.21-.45-.6-.96-1.18-1.36-1.81-.42-.66-.93-.96-1.81-.69v3.86h-2.37v-10.34c2.28.12,4.54.14,6.77.4,1.36.16,2.23,1.31,2.3,2.51.09,1.47-.52,2.4-1.97,2.98-.19.08-.39.15-.73.28ZM744.78,292.18c1.11-.08,2.15-.07,3.15-.26.37-.07.92-.67.88-.96-.05-.4-.54-.99-.92-1.06-.99-.19-2.03-.15-3.11-.2v2.49Z"/></g></svg>