<?xml version="1.0" encoding="UTF-8"?><svg id="Layer_1" xmlns="http://www.w3.org/2000/svg" viewBox="0 0 792 612"><defs><style>.cls-1{fill:#b4b4b5;}</style></defs><path class="cls-1" d="M268.83,362.97h-27.47v-90.75h-31.52v-22.86h89.92v22.69h-30.93v90.93ZM578.22,362.97h-18.49l-3.7-6.38c-13.95,9.41-24.71,10.25-30.33,10.25-7.09,0-20.71-1.1-34.23-15.45-7.7-8.16-16.11-23.03-16.11-45.9,0-21.08,8.01-36.04,16.9-44.95,12.28-12.3,27.12-15.82,38.81-15.81,33.87.05,46.48,30.5,46.98,41.35h-24.62c-4.63-21.4-22.36-20.25-22.36-20.25-26.3,1.1-30.59,27.81-30.59,38.57,0,8.55,2.42,24.9,12.73,33.66,4.67,3.96,10.04,6.1,17.52,6.1,8.87,0,15.22-4.88,17.08-7.05,5.45-6.38,4.73-10.92,4.77-15.47h-23.19v-22.1h48.82v63.44ZM669.48,272.22h-55.12v20.5h47.06v21.5h-47.06v25.39h55.12v23.35h-81.84v-113.61h81.84v22.86Z"/><path class="cls-1" d="M105.3,278.28c-15.03,0-27.21,12.19-27.21,27.22s12.19,27.22,27.21,27.22,27.22-12.19,27.22-27.22-12.19-27.22-27.22-27.22Z"/><path class="cls-1" d="M184.21,306c0-43.58-35.34-78.91-78.92-78.91s-78.91,35.32-78.91,78.91,35.33,78.91,78.91,78.91,78.92-35.33,78.92-78.91ZM105.3,358.41c-28.94,0-52.41-23.47-52.41-52.41s23.47-52.41,52.41-52.41,52.41,23.46,52.41,52.41-23.47,52.41-52.41,52.41Z"/><polygon class="cls-1" points="299.76 249.36 209.84 249.36 209.84 272.22 241.36 272.22 241.36 362.97 268.83 362.97 268.83 272.05 299.76 272.05 299.76 249.36"/><polygon class="cls-1" points="587.64 362.97 669.48 362.97 669.48 339.62 614.36 339.62 614.36 314.23 661.42 314.23 661.42 292.72 614.36 292.72 614.36 272.22 669.48 272.22 669.48 249.36 587.64 249.36 587.64 362.97"/><polygon class="cls-1" points="673.35 272.22 705.8 272.22 705.8 362.97 732.68 362.97 732.68 272.22 765.62 272.22 765.62 249.36 673.35 249.36 673.35 272.22"/><path class="cls-1" d="M529.4,321.63h23.19c-.05,4.55.67,9.09-4.77,15.47-1.86,2.18-8.21,7.05-17.08,7.05-7.47,0-12.85-2.14-17.52-6.1-10.31-8.75-12.73-25.1-12.73-33.66,0-10.75,4.28-37.47,30.59-38.57,0,0,17.74-1.14,22.36,20.25h24.62c-.5-10.84-13.11-41.29-46.98-41.35-11.69-.02-26.53,3.51-38.81,15.81-8.9,8.91-16.9,23.87-16.9,44.95,0,22.87,8.42,37.74,16.11,45.9,13.52,14.34,27.13,15.45,34.23,15.45,5.63,0,16.39-.84,30.33-10.25l3.7,6.38h18.49v-63.44h-48.82v22.1Z"/><path class="cls-1" d="M342.1,249.34h-29.16l-36.88,113.64h28.03l7.74-23.61h33.54l8.2,23.61h28.27l-39.73-113.64ZM318.5,318.78l9.67-29.33,10.26,29.33h-19.92Z"/><path class="cls-1" d="M468.47,328.94c0-15.04-13.28-20-13.28-20,1.34-.33,16.47-9.16,16.47-26.73,0-12.09-4.2-32.85-34.54-32.85h-53.36l-.08,113.62h26.3v-41.94h21.94c9.32.16,10.67,5.13,10.92,9.58v18.23c-.08,4.71-.25,12.95,10.08,14.12h21.68c-.92-2.02-6.13-4.36-6.13-12.85v-21.18ZM432.59,294.9c-2.94.07-22.61,0-22.61,0v-22.69h25.21c6.22,0,11.41,2.84,11.41,11.26,0,7.74-6.11,11.26-14.01,11.43Z"/><path class="cls-1" d="M746.41,363.33c3.89,0,7.35-2.82,7.35-7.18s-3.47-7.15-7.35-7.15-7.36,2.8-7.36,7.15,3.47,7.18,7.36,7.18ZM746.41,350.53c2.97,0,5.4,2.36,5.4,5.61s-2.43,5.65-5.4,5.65-5.41-2.38-5.41-5.65,2.39-5.61,5.41-5.61Z"/><path class="cls-1" d="M745.15,356.75h1l1.95,3.43h1.66l-2.14-3.5c1.19-.11,2.11-.67,2.11-2.15,0-1.75-1.14-2.38-3.15-2.38h-3.02v8.02h1.59v-3.43ZM745.15,353.39h1.34c.73,0,1.65.13,1.65,1,0,.97-.67,1.11-1.57,1.11h-1.42v-2.11Z"/></svg>