<?xml version="1.0" encoding="UTF-8"?><svg id="Layer_1" xmlns="http://www.w3.org/2000/svg" viewBox="0 0 792 612"><defs><style>.cls-1{fill:#b4b4b5;}</style></defs><path class="cls-1" d="M295.67,258.67h48.27l57.38,158.39h-44.84l-8.73-24.78h-60.3l-8.51,24.78h-45.56l62.28-158.39ZM300.19,363.63h35.05l-17.41-52.64-17.64,52.64ZM649.21,386.45c-19.58,0-29.48-5.49-33.43-19.9h-40.21c0,19.73,16.96,52.38,68.63,52.38,37.57,0,48.87-10.29,56.37-18.1,10.02-10.41,12.3-23.18,12.3-33.72,0-19-10.98-36.96-33.62-42.99l-34.58-9.25c-16.29-3.61-21.54-9.25-21.54-15.91,0-6.12,6.3-12.21,21.06-12.21,21.37,0,25.52,7.33,29.22,16.7h38.17c0-12.31-11.1-27.81-20.43-34.24-10.54-7.26-23.92-13.95-47.34-13.95-19.93,0-32.5,4.68-44.75,13.64-22.13,16.19-23.62,47.34-3.25,64.59,7.77,6.6,18.77,9.78,31.95,13.81l27.32,7.36c10.91,3,19.34,6.69,19.34,16.57,0,10.38-11.66,15.22-25.22,15.22M194.26,417.06l73.13-185.24h454.29l3.46-38.75H232.48l-60.69,153.6-54.66-153.6h-50.26c.31,1.35,79.9,223.99,79.9,223.99h47.49ZM459.76,336.98l59.3,80.08h37.12v-158.39h-42.84v86.14l-53.78-86.14h-41.01v158.39h41.22v-80.08Z"/></svg>