<?xml version="1.0" encoding="UTF-8"?><svg id="Layer_1" xmlns="http://www.w3.org/2000/svg" viewBox="0 0 792 612"><defs><style>.cls-1{fill:#b4b4b5;}</style></defs><g id="C9kxRT"><path class="cls-1" d="M460.73,381.65c0-6.41-.03-12.25.02-18.09.02-2.12-.29-4-2.91-3.95-2.66.05-2.76,2.04-2.74,4.09.05,5.83.02,11.66.02,17.66-1.18.12-1.97.27-2.75.27-7.63.02-15.26.01-23.46.01,0-6.2.15-12.15-.11-18.09-.06-1.35-1.34-3.5-2.43-3.76-2.41-.59-3.13,1.31-3.11,3.56.06,5.85.02,11.71.02,17.93h-26.23c0-5.63,0-11.31,0-17,0-2.02.45-4.5-2.56-4.63-3.21-.13-3.08,2.37-3.07,4.62.01,5.57,0,11.15,0,17.05h-26.02c0-4.58,0-9.16,0-13.74,0-1.36,0-2.73-.01-4.09-.02-2.08-.52-4.25-3.02-3.75-1.11.22-2.54,2.35-2.6,3.68-.28,5.84-.12,11.7-.12,17.89h-26.03c0-4.9,0-9.88,0-14.86,0-1.36.34-2.89-.16-4.05-.49-1.14-1.84-1.91-2.81-2.84-.9.99-2.52,1.94-2.58,2.98-.29,4.62-.14,9.27-.15,13.91,0,1.48,0,2.96,0,4.89-7.28,0-14.32.44-21.27-.17-3.96-.35-4.95-4.14-4.95-7.85.01-12.69.07-25.37-.08-38.06-.02-1.72-.7-3.79-1.8-5.08-29.49-34.39-38.12-73.29-25.19-116.74,1.7-5.7,1-10.19-2.35-14.91-6.36-8.98-7.56-19.47-7.45-30.06.13-13.06,2.43-25.78,7.88-37.77,3.01-6.64,6.82-12.76,12.68-17.31,7.41-5.75,14.97-4.81,20.65,2.67,5.34,7.03,6.81,15.38,7.43,23.86.38,5.15.07,10.35.07,15.48,53.51-37.15,107.07-37.29,161.15-.32,0-1.14.04-2.4,0-3.66-.31-9.47.23-18.82,3.64-27.8.34-.89.69-1.78,1.09-2.64,5.97-13.06,17.06-15.05,26.87-4.6,9.2,9.81,13.34,22.09,15.67,34.97,2.56,14.13,3.7,28.78-3.26,41.67-5.2,9.64-5.05,17.81-2.57,28.1,9.82,40.73.29,77.16-27.17,108.9-1.11,1.28-1.87,3.32-1.89,5.02-.16,12.55-.07,25.1-.09,37.65-.01,6.54-2.31,8.87-8.86,8.95-5.58.07-11.17.01-17.35.01ZM490.85,248.32c-.4-13.25-3.46-25.48-11.8-35.96-12.39-15.57-32.8-15.89-44.72.06-14.52,19.43-15.37,40.71-5.82,62.57,1.66,3.8,4.19,7.38,6.95,10.51,12.27,13.98,30.44,13.85,42.64-.23,9.19-10.62,12.37-23.39,12.77-36.95ZM297.33,249.87c-.09,10.8,3.9,23.87,10.59,32.82,13.15,17.58,33.94,17.63,47.12.11,14.62-19.43,14.15-51.36-1.03-70.36-12.81-16.04-33.32-15.64-45.58.81-7.73,10.37-10.69,22.18-11.1,36.63ZM405.95,330.6c-4.14-7.18-7.92-13.72-11.98-20.78-4.07,7.12-7.88,13.77-11.88,20.78h23.87Z"/><path class="cls-1" d="M528.59,480.91c-5.38.46-10.79,1.87-15.91,1.17-9.5-1.31-15.96-9.68-16.14-19.3-.1-5.45-.13-10.9-.01-16.34.27-11.86,9.04-20.78,20.26-20.77,11.72.01,20.6,9.1,20.67,21.25.06,11.58.09,23.16,0,34.74-.08,10.71-7.43,19.01-17.93,20.53-3.1.45-6.11.21-6.67-3.49-.57-3.71,2.04-4.75,5.3-5.14,7.21-.85,11.43-6.67,10.43-12.64ZM528.88,454.43s-.05,0-.07,0c0-3.13.2-6.27-.04-9.38-.43-5.61-5.09-10.12-10.64-10.61-5.87-.52-11.77,3.07-12.37,8.84-.75,7.24-.76,14.67-.03,21.92.58,5.77,6.54,9.49,12.28,9.02,6.11-.5,10.5-4.97,10.84-11.22.16-2.85.03-5.71.03-8.57Z"/><path class="cls-1" d="M434.52,429.15c0-6.26.07-11.84-.03-17.43-.05-3,.92-5.37,4.1-5.48,3.45-.12,4.5,2.34,4.5,5.5-.03,16.9.09,33.8-.06,50.7-.1,11.41-9.11,20.27-20.28,20.34-11.34.08-20.46-8.89-20.66-20.42-.09-5.04-.03-10.08-.01-15.13.05-16.61,15.15-26.22,30.08-19.15.58.27,1.17.53,2.36,1.06ZM434.54,454.42s.02,0,.04,0c0-2.72.1-5.45-.02-8.16-.33-7.18-5.1-11.93-11.85-11.92-6.57,0-11.52,4.99-11.77,12.07-.18,5.3-.23,10.61-.16,15.92.09,6.73,4.98,11.65,11.52,11.81,6.57.16,11.74-4.47,12.21-11.15.2-2.84.03-5.71.03-8.57Z"/><path class="cls-1" d="M310.37,458.6c-.85,8.09,1.92,13.18,7.73,15.02,5.88,1.86,10.96-.36,14.63-6.58,1.39-2.35,3.17-3.5,5.7-2.18,2.6,1.36,3.05,3.52,1.83,6.23-3.7,8.19-12.9,13.11-21.87,11.58-9.31-1.59-16.49-9.28-17.02-18.84-.35-6.25-.33-12.55.04-18.8.67-11.24,9.91-19.63,20.85-19.36,11.18.28,19.82,9.2,20.01,20.67q.2,12.26-12.14,12.26c-6.52,0-13.05,0-19.75,0ZM333.3,450.02c.95-7.01-.88-11.38-5.62-14.15-4.04-2.36-9.35-1.99-13.05.9-4.04,3.15-5.42,7.7-3.88,13.25,6.18,0,12.43,0,18.68,0,1.21,0,2.43,0,3.87,0Z"/><path class="cls-1" d="M357.42,458.88c-1.07,6.98,1.67,12.37,7.23,14.51,5.92,2.28,11.4.13,15.14-6.1,1.46-2.43,3.25-3.84,5.99-2.37,2.9,1.56,2.75,4,1.47,6.67-3.87,8.09-13.23,12.77-22.13,10.99-9.16-1.83-16.23-9.8-16.48-18.84-.16-5.85-.06-11.72-.03-17.57.07-11.15,8.75-20.19,19.65-20.5,11.03-.32,20.32,8.01,21.15,19.07.2,2.71.2,5.45.13,8.17-.1,4.24-1.45,5.63-5.7,5.68-7.77.08-15.53.01-23.3.04-1.06,0-2.12.17-3.13.26ZM380.44,449.86c1.12-6.33-.6-10.83-5.1-13.7-4.04-2.57-9.23-2.47-13.1.24-4.23,2.97-5.84,7.73-4.45,13.46h22.65Z"/><path class="cls-1" d="M491.15,454.15c0,3,.11,6.01-.02,9-.49,11.38-9.57,19.87-20.92,19.65-11.01-.21-19.81-9.08-19.99-20.25-.09-5.86-.27-11.74.02-17.59.53-10.88,9.8-19.47,20.48-19.3,10.97.17,19.85,8.61,20.39,19.48.15,2.99.02,6,.02,9,0,0,.02,0,.02,0ZM482.41,454.62c0-2.58.04-5.17,0-7.75-.12-7.2-5.04-12.41-11.77-12.5-6.68-.09-11.85,5.07-12,12.28-.11,5.43-.02,10.88.23,16.31.29,6.36,5.55,11.37,11.65,11.38,6.45.01,11.58-4.93,11.88-11.56.12-2.71.02-5.44.02-8.16Z"/><path class="cls-1" d="M283.34,434.78c-6.88,0-13.09,0-19.3,0-1.5,0-3.27.4-4.42-.25-1.55-.88-3.75-2.74-3.61-3.93.2-1.6,2.32-4.19,3.69-4.23,10.75-.33,21.53-.35,32.28-.03,4.43.13,5.45,3.57,2.57,7.7-8.27,11.83-16.61,23.62-24.91,35.43-.84,1.19-1.6,2.43-2.86,4.33,7.42,0,14.16,0,20.89,0,1.36,0,2.73.03,4.09,0,2.95-.05,4.88,1.42,4.86,4.29-.02,2.9-2.09,4.24-4.96,4.25-4.22,0-8.45.01-12.67.01-6.13,0-12.27.19-18.39-.11-2.08-.1-5.07-.9-5.87-2.36-.76-1.38.29-4.39,1.43-6.07,8.07-11.8,16.38-23.44,24.6-35.14.75-1.07,1.44-2.17,2.57-3.89Z"/></g><circle class="cls-1" cx="396.25" cy="479.12" r="3.84"/></svg>